<?xml version="1.0" encoding="utf-8"?>
<!-- Generator: Adobe Illustrator 24.1.0, SVG Export Plug-In . SVG Version: 6.00 Build 0)  -->
<svg version="1.1" id="Capa_1" xmlns="http://www.w3.org/2000/svg" xmlns:xlink="http://www.w3.org/1999/xlink" x="0px" y="0px"
	 viewBox="0 0 20 20" style="enable-background:new 0 0 20 20;" xml:space="preserve">
<style type="text/css">
	.st0{fill:#0364FF;}
</style>
<g id="Manager">
	<g id="My-fleet-projects-" transform="translate(-35.000000, -468.000000)">
		<g id="Statics" transform="translate(29.000000, 417.000000)">
			<g id="menu" transform="translate(18.000000, 63.000000)">
				<path id="Shape_5_" class="st0" d="M4.9-12h-3c-1.7,0-3.1,1.4-3.1,3.1v3c0,1.7,1.4,3.1,3.1,3.1h3C6.6-2.8,8-4.2,8-5.9v-3
					C8-10.6,6.6-12,4.9-12z M6.4-6c0,0.8-0.7,1.5-1.5,1.5H2C1.2-4.5,0.5-5.2,0.5-6v-2.8c0-0.8,0.7-1.5,1.5-1.5h2.8
					c0.8,0,1.5,0.7,1.5,1.5V-6H6.4z"/>
				<path id="Shape_4_" class="st0" d="M-5.9-12h-3c-1.7,0-3.1,1.4-3.1,3.1v3c0,1.7,1.4,3.1,3.1,3.1h3c1.7,0,3.1-1.4,3.1-3.1v-3
					C-2.8-10.6-4.2-12-5.9-12z M-4.5-6c0,0.8-0.7,1.5-1.5,1.5h-2.8c-0.8,0-1.5-0.7-1.5-1.5v-2.8c0-0.8,0.7-1.5,1.5-1.5H-6
					c0.8,0,1.5,0.7,1.5,1.5C-4.5-8.8-4.5-6-4.5-6z"/>
				<path id="Shape_3_" class="st0" d="M-5.9-1.2h-3c-1.7,0-3.1,1.4-3.1,3.1v3C-12,6.6-10.6,8-8.9,8h3c1.7,0,3.1-1.4,3.1-3.1v-3
					C-2.8,0.2-4.2-1.2-5.9-1.2z M-4.5,4.8c0,0.8-0.7,1.5-1.5,1.5h-2.8c-0.8,0-1.5-0.7-1.5-1.5V2c0-0.8,0.7-1.5,1.5-1.5H-6
					c0.8,0,1.5,0.7,1.5,1.5C-4.5,2-4.5,4.8-4.5,4.8z"/>
				<path id="Path_1_" class="st0" d="M7.2,4.1c-0.4,0-0.8,0.3-0.8,0.8c0,0.9-0.7,1.6-1.6,1.6h-3c-0.7,0-1.4-0.7-1.4-1.6v-3
					C0.4,1,1.1,0.3,2,0.3h3c0.5,0.1,1.1,0.5,1.3,1c0.2,0.4,0.6,0.6,1,0.4c0.4-0.2,0.6-0.6,0.4-1C7.3-0.4,6.2-1.2,4.9-1.2h-3
					c-1.7,0-3,1.4-3,3.1v3C-1.1,6.6,0.3,8,2,8h3c1.7,0,3.1-1.4,3.1-3.1C8,4.5,7.7,4.1,7.2,4.1z"/>
			</g>
		</g>
	</g>
</g>
</svg>
